<svg id="visual" viewBox="0 0 960 540" width="960" height="540" xmlns="http://www.w3.org/2000/svg" xmlns:xlink="http://www.w3.org/1999/xlink" version="1.1"><rect x="0" y="0" width="960" height="540" fill="#ffffff"></rect><defs><linearGradient id="grad1_0" x1="43.8%" y1="100%" x2="100%" y2="0%"><stop offset="14.444444444444446%" stop-color="#7f46ef" stop-opacity="1"></stop><stop offset="85.55555555555554%" stop-color="#7f46ef" stop-opacity="1"></stop></linearGradient></defs><defs><linearGradient id="grad1_1" x1="43.8%" y1="100%" x2="100%" y2="0%"><stop offset="14.444444444444446%" stop-color="#7f46ef" stop-opacity="1"></stop><stop offset="85.55555555555554%" stop-color="#c7a2f9" stop-opacity="1"></stop></linearGradient></defs><defs><linearGradient id="grad1_2" x1="43.8%" y1="100%" x2="100%" y2="0%"><stop offset="14.444444444444446%" stop-color="#ffffff" stop-opacity="1"></stop><stop offset="85.55555555555554%" stop-color="#c7a2f9" stop-opacity="1"></stop></linearGradient></defs><defs><linearGradient id="grad2_0" x1="0%" y1="100%" x2="56.3%" y2="0%"><stop offset="14.444444444444446%" stop-color="#7f46ef" stop-opacity="1"></stop><stop offset="85.55555555555554%" stop-color="#7f46ef" stop-opacity="1"></stop></linearGradient></defs><defs><linearGradient id="grad2_1" x1="0%" y1="100%" x2="56.3%" y2="0%"><stop offset="14.444444444444446%" stop-color="#c7a2f9" stop-opacity="1"></stop><stop offset="85.55555555555554%" stop-color="#7f46ef" stop-opacity="1"></stop></linearGradient></defs><defs><linearGradient id="grad2_2" x1="0%" y1="100%" x2="56.3%" y2="0%"><stop offset="14.444444444444446%" stop-color="#c7a2f9" stop-opacity="1"></stop><stop offset="85.55555555555554%" stop-color="#ffffff" stop-opacity="1"></stop></linearGradient></defs><g transform="translate(960, 540)"><path d="M-486 0C-459.7 -55.4 -433.3 -110.7 -413.9 -171.4C-394.5 -232.2 -381.9 -298.2 -343.7 -343.7C-305.4 -389.1 -241.4 -413.9 -179.9 -434.2C-118.3 -454.5 -59.2 -470.3 0 -486L0 0Z" fill="#e4d0fd"></path><path d="M-324 0C-306.4 -36.9 -288.9 -73.8 -275.9 -114.3C-263 -154.8 -254.6 -198.8 -229.1 -229.1C-203.6 -259.4 -160.9 -276 -119.9 -289.5C-78.9 -303 -39.4 -313.5 0 -324L0 0Z" fill="#a675f4"></path><path d="M-162 0C-153.2 -18.5 -144.4 -36.9 -138 -57.1C-131.5 -77.4 -127.3 -99.4 -114.6 -114.6C-101.8 -129.7 -80.5 -138 -60 -144.7C-39.4 -151.5 -19.7 -156.8 0 -162L0 0Z" fill="#7f46ef"></path></g><g transform="translate(0, 0)"><path d="M486 0C473.7 60.5 461.4 121 440.7 182.5C420 244 390.9 306.5 343.7 343.7C296.4 380.8 231 392.6 170.7 412.1C110.4 431.5 55.2 458.8 0 486L0 0Z" fill="#e4d0fd"></path><path d="M324 0C315.8 40.3 307.6 80.7 293.8 121.7C280 162.7 260.6 204.4 229.1 229.1C197.6 253.9 154 261.7 113.8 274.7C73.6 287.7 36.8 305.8 0 324L0 0Z" fill="#a675f4"></path><path d="M162 0C157.9 20.2 153.8 40.3 146.9 60.8C140 81.3 130.3 102.2 114.6 114.6C98.8 126.9 77 130.9 56.9 137.4C36.8 143.8 18.4 152.9 0 162L0 0Z" fill="#7f46ef"></path></g></svg>