<svg id="visual" viewBox="0 0 960 100" width="960" height="100" xmlns="http://www.w3.org/2000/svg" xmlns:xlink="http://www.w3.org/1999/xlink" version="1.1"><rect x="0" y="0" width="960" height="100" fill="#ffffff"></rect><path d="M0 59L22.8 54.2C45.7 49.3 91.3 39.7 137 39.5C182.7 39.3 228.3 48.7 274 54.8C319.7 61 365.3 64 411.2 59.5C457 55 503 43 548.8 38.8C594.7 34.7 640.3 38.3 686 41.5C731.7 44.7 777.3 47.3 823 49C868.7 50.7 914.3 51.3 937.2 51.7L960 52L960 0L937.2 0C914.3 0 868.7 0 823 0C777.3 0 731.7 0 686 0C640.3 0 594.7 0 548.8 0C503 0 457 0 411.2 0C365.3 0 319.7 0 274 0C228.3 0 182.7 0 137 0C91.3 0 45.7 0 22.8 0L0 0Z" fill="#956fe0" stroke-linecap="round" stroke-linejoin="miter"></path></svg>