<svg id="visual" viewBox="0 0 960 540" width="960" height="540" xmlns="http://www.w3.org/2000/svg" xmlns:xlink="http://www.w3.org/1999/xlink" version="1.1"><rect x="0" y="0" width="960" height="540" fill="#ffffff"></rect><defs><linearGradient id="grad1_0" x1="43.8%" y1="100%" x2="100%" y2="0%"><stop offset="14.444444444444446%" stop-color="#7f46ef" stop-opacity="1"></stop><stop offset="85.55555555555554%" stop-color="#7f46ef" stop-opacity="1"></stop></linearGradient></defs><defs><linearGradient id="grad1_1" x1="43.8%" y1="100%" x2="100%" y2="0%"><stop offset="14.444444444444446%" stop-color="#7f46ef" stop-opacity="1"></stop><stop offset="85.55555555555554%" stop-color="#c7a2f9" stop-opacity="1"></stop></linearGradient></defs><defs><linearGradient id="grad1_2" x1="43.8%" y1="100%" x2="100%" y2="0%"><stop offset="14.444444444444446%" stop-color="#ffffff" stop-opacity="1"></stop><stop offset="85.55555555555554%" stop-color="#c7a2f9" stop-opacity="1"></stop></linearGradient></defs><defs><linearGradient id="grad2_0" x1="0%" y1="100%" x2="56.3%" y2="0%"><stop offset="14.444444444444446%" stop-color="#7f46ef" stop-opacity="1"></stop><stop offset="85.55555555555554%" stop-color="#7f46ef" stop-opacity="1"></stop></linearGradient></defs><defs><linearGradient id="grad2_1" x1="0%" y1="100%" x2="56.3%" y2="0%"><stop offset="14.444444444444446%" stop-color="#c7a2f9" stop-opacity="1"></stop><stop offset="85.55555555555554%" stop-color="#7f46ef" stop-opacity="1"></stop></linearGradient></defs><defs><linearGradient id="grad2_2" x1="0%" y1="100%" x2="56.3%" y2="0%"><stop offset="14.444444444444446%" stop-color="#c7a2f9" stop-opacity="1"></stop><stop offset="85.55555555555554%" stop-color="#ffffff" stop-opacity="1"></stop></linearGradient></defs><g transform="translate(960, 540)"><path d="M-486 0C-439 -52.1 -391.9 -104.2 -359.4 -148.9C-326.8 -193.6 -308.8 -230.9 -285.7 -285.7C-262.6 -340.5 -234.4 -412.7 -186 -449C-137.5 -485.3 -68.8 -485.7 0 -486L0 0Z" fill="#e4d0fd"></path><path d="M-324 0C-292.6 -34.7 -261.3 -69.4 -239.6 -99.2C-217.9 -129 -205.8 -153.9 -190.4 -190.4C-175 -227 -156.3 -275.1 -124 -299.3C-91.7 -323.5 -45.8 -323.8 0 -324L0 0Z" fill="#a675f4"></path><path d="M-162 0C-146.3 -17.4 -130.6 -34.7 -119.8 -49.6C-108.9 -64.5 -102.9 -77 -95.2 -95.2C-87.5 -113.5 -78.1 -137.6 -62 -149.7C-45.8 -161.8 -22.9 -161.9 0 -162L0 0Z" fill="#7f46ef"></path></g><g transform="translate(0, 0)"><path d="M486 0C485.6 71.8 485.2 143.5 445.3 184.5C405.4 225.4 326 235.5 281.4 281.4C236.8 327.3 227.1 409 186 449C144.9 489.1 72.4 487.5 0 486L0 0Z" fill="#e4d0fd"></path><path d="M324 0C323.7 47.8 323.5 95.7 296.9 123C270.3 150.3 217.3 157 187.6 187.6C157.9 218.2 151.4 272.6 124 299.3C96.6 326 48.3 325 0 324L0 0Z" fill="#a675f4"></path><path d="M162 0C161.9 23.9 161.7 47.8 148.4 61.5C135.1 75.1 108.7 78.5 93.8 93.8C78.9 109.1 75.7 136.3 62 149.7C48.3 163 24.1 162.5 0 162L0 0Z" fill="#7f46ef"></path></g></svg>