<svg id="visual" viewBox="0 0 960 540" width="960" height="540" xmlns="http://www.w3.org/2000/svg" xmlns:xlink="http://www.w3.org/1999/xlink" version="1.1"><rect x="0" y="0" width="960" height="540" fill="#956fe0"></rect><path d="M0 282L17.8 279.5C35.7 277 71.3 272 106.8 283.5C142.3 295 177.7 323 213.2 328.8C248.7 334.7 284.3 318.3 320 299C355.7 279.7 391.3 257.3 426.8 256C462.3 254.7 497.7 274.3 533.2 275C568.7 275.7 604.3 257.3 640 261.7C675.7 266 711.3 293 746.8 310.3C782.3 327.7 817.7 335.3 853.2 334.7C888.7 334 924.3 325 942.2 320.5L960 316L960 0L942.2 0C924.3 0 888.7 0 853.2 0C817.7 0 782.3 0 746.8 0C711.3 0 675.7 0 640 0C604.3 0 568.7 0 533.2 0C497.7 0 462.3 0 426.8 0C391.3 0 355.7 0 320 0C284.3 0 248.7 0 213.2 0C177.7 0 142.3 0 106.8 0C71.3 0 35.7 0 17.8 0L0 0Z" fill="#956fe0"></path><path d="M0 179L17.8 190.5C35.7 202 71.3 225 106.8 241.5C142.3 258 177.7 268 213.2 255.5C248.7 243 284.3 208 320 190.3C355.7 172.7 391.3 172.3 426.8 174.2C462.3 176 497.7 180 533.2 192C568.7 204 604.3 224 640 225.3C675.7 226.7 711.3 209.3 746.8 200.5C782.3 191.7 817.7 191.3 853.2 192.5C888.7 193.7 924.3 196.3 942.2 197.7L960 199L960 0L942.2 0C924.3 0 888.7 0 853.2 0C817.7 0 782.3 0 746.8 0C711.3 0 675.7 0 640 0C604.3 0 568.7 0 533.2 0C497.7 0 462.3 0 426.8 0C391.3 0 355.7 0 320 0C284.3 0 248.7 0 213.2 0C177.7 0 142.3 0 106.8 0C71.3 0 35.7 0 17.8 0L0 0Z" fill="#cc6cc2"></path><path d="M0 209L17.8 213C35.7 217 71.3 225 106.8 221.5C142.3 218 177.7 203 213.2 191.2C248.7 179.3 284.3 170.7 320 167.8C355.7 165 391.3 168 426.8 169C462.3 170 497.7 169 533.2 176C568.7 183 604.3 198 640 203.8C675.7 209.7 711.3 206.3 746.8 195.8C782.3 185.3 817.7 167.7 853.2 159.5C888.7 151.3 924.3 152.7 942.2 153.3L960 154L960 0L942.2 0C924.3 0 888.7 0 853.2 0C817.7 0 782.3 0 746.8 0C711.3 0 675.7 0 640 0C604.3 0 568.7 0 533.2 0C497.7 0 462.3 0 426.8 0C391.3 0 355.7 0 320 0C284.3 0 248.7 0 213.2 0C177.7 0 142.3 0 106.8 0C71.3 0 35.7 0 17.8 0L0 0Z" fill="#e675a5"></path><path d="M0 99L17.8 98.8C35.7 98.7 71.3 98.3 106.8 96.7C142.3 95 177.7 92 213.2 91.5C248.7 91 284.3 93 320 94.8C355.7 96.7 391.3 98.3 426.8 110C462.3 121.7 497.7 143.3 533.2 148.2C568.7 153 604.3 141 640 130.7C675.7 120.3 711.3 111.7 746.8 106.3C782.3 101 817.7 99 853.2 104.2C888.7 109.3 924.3 121.7 942.2 127.8L960 134L960 0L942.2 0C924.3 0 888.7 0 853.2 0C817.7 0 782.3 0 746.8 0C711.3 0 675.7 0 640 0C604.3 0 568.7 0 533.2 0C497.7 0 462.3 0 426.8 0C391.3 0 355.7 0 320 0C284.3 0 248.7 0 213.2 0C177.7 0 142.3 0 106.8 0C71.3 0 35.7 0 17.8 0L0 0Z" fill="#ed8891"></path><path d="M0 85L17.8 81.2C35.7 77.3 71.3 69.7 106.8 69.2C142.3 68.7 177.7 75.3 213.2 82C248.7 88.7 284.3 95.3 320 95.5C355.7 95.7 391.3 89.3 426.8 82.2C462.3 75 497.7 67 533.2 69C568.7 71 604.3 83 640 79.3C675.7 75.7 711.3 56.3 746.8 47.3C782.3 38.3 817.7 39.7 853.2 47.8C888.7 56 924.3 71 942.2 78.5L960 86L960 0L942.2 0C924.3 0 888.7 0 853.2 0C817.7 0 782.3 0 746.8 0C711.3 0 675.7 0 640 0C604.3 0 568.7 0 533.2 0C497.7 0 462.3 0 426.8 0C391.3 0 355.7 0 320 0C284.3 0 248.7 0 213.2 0C177.7 0 142.3 0 106.8 0C71.3 0 35.7 0 17.8 0L0 0Z" fill="#e89f8b"></path></svg>