<svg id="visual" viewBox="0 0 1439 700" width="1439" height="700" xmlns="http://www.w3.org/2000/svg" xmlns:xlink="http://www.w3.org/1999/xlink" version="1.1"><path d="M0 106L21.8 107.2C43.7 108.3 87.3 110.7 131 108.3C174.7 106 218.3 99 261.8 94.3C305.3 89.7 348.7 87.3 392.2 89.7C435.7 92 479.3 99 523 102.5C566.7 106 610.3 106 654 102.5C697.7 99 741.3 92 785 90.8C828.7 89.7 872.3 94.3 916 95.5C959.7 96.7 1003.3 94.3 1046.8 97.8C1090.3 101.3 1133.7 110.7 1177.2 103.7C1220.7 96.7 1264.3 73.3 1308 60.5C1351.7 47.7 1395.3 45.3 1417.2 44.2L1439 43L1439 0L1417.2 0C1395.3 0 1351.7 0 1308 0C1264.3 0 1220.7 0 1177.2 0C1133.7 0 1090.3 0 1046.8 0C1003.3 0 959.7 0 916 0C872.3 0 828.7 0 785 0C741.3 0 697.7 0 654 0C610.3 0 566.7 0 523 0C479.3 0 435.7 0 392.2 0C348.7 0 305.3 0 261.8 0C218.3 0 174.7 0 131 0C87.3 0 43.7 0 21.8 0L0 0Z" fill="#956ee0"></path><path d="M0 211L21.8 236.7C43.7 262.3 87.3 313.7 131 331.2C174.7 348.7 218.3 332.3 261.8 304.3C305.3 276.3 348.7 236.7 392.2 235.5C435.7 234.3 479.3 271.7 523 290.3C566.7 309 610.3 309 654 293.8C697.7 278.7 741.3 248.3 785 248.3C828.7 248.3 872.3 278.7 916 300.8C959.7 323 1003.3 337 1046.8 355.7C1090.3 374.3 1133.7 397.7 1177.2 376.7C1220.7 355.7 1264.3 290.3 1308 268.2C1351.7 246 1395.3 267 1417.2 277.5L1439 288L1439 41L1417.2 42.2C1395.3 43.3 1351.7 45.7 1308 58.5C1264.3 71.3 1220.7 94.7 1177.2 101.7C1133.7 108.7 1090.3 99.3 1046.8 95.8C1003.3 92.3 959.7 94.7 916 93.5C872.3 92.3 828.7 87.7 785 88.8C741.3 90 697.7 97 654 100.5C610.3 104 566.7 104 523 100.5C479.3 97 435.7 90 392.2 87.7C348.7 85.3 305.3 87.7 261.8 92.3C218.3 97 174.7 104 131 106.3C87.3 108.7 43.7 106.3 21.8 105.2L0 104Z" fill="#6e46b9"></path><path d="M0 386L21.8 391.8C43.7 397.7 87.3 409.3 131 415.2C174.7 421 218.3 421 261.8 404.7C305.3 388.3 348.7 355.7 392.2 352.2C435.7 348.7 479.3 374.3 523 391.8C566.7 409.3 610.3 418.7 654 401.2C697.7 383.7 741.3 339.3 785 331.2C828.7 323 872.3 351 916 381.3C959.7 411.7 1003.3 444.3 1046.8 464.2C1090.3 484 1133.7 491 1177.2 470C1220.7 449 1264.3 400 1308 391.8C1351.7 383.7 1395.3 416.3 1417.2 432.7L1439 449L1439 286L1417.2 275.5C1395.3 265 1351.7 244 1308 266.2C1264.3 288.3 1220.7 353.7 1177.2 374.7C1133.7 395.7 1090.3 372.3 1046.8 353.7C1003.3 335 959.7 321 916 298.8C872.3 276.7 828.7 246.3 785 246.3C741.3 246.3 697.7 276.7 654 291.8C610.3 307 566.7 307 523 288.3C479.3 269.7 435.7 232.3 392.2 233.5C348.7 234.7 305.3 274.3 261.8 302.3C218.3 330.3 174.7 346.7 131 329.2C87.3 311.7 43.7 260.3 21.8 234.7L0 209Z" fill="#572fa2"></path><path d="M0 624L21.8 614.7C43.7 605.3 87.3 586.7 131 582C174.7 577.3 218.3 586.7 261.8 593.7C305.3 600.7 348.7 605.3 392.2 599.5C435.7 593.7 479.3 577.3 523 582C566.7 586.7 610.3 612.3 654 626.3C697.7 640.3 741.3 642.7 785 636.8C828.7 631 872.3 617 916 612.3C959.7 607.7 1003.3 612.3 1046.8 621.7C1090.3 631 1133.7 645 1177.2 641.5C1220.7 638 1264.3 617 1308 603C1351.7 589 1395.3 582 1417.2 578.5L1439 575L1439 447L1417.2 430.7C1395.3 414.3 1351.7 381.7 1308 389.8C1264.3 398 1220.7 447 1177.2 468C1133.7 489 1090.3 482 1046.8 462.2C1003.3 442.3 959.7 409.7 916 379.3C872.3 349 828.7 321 785 329.2C741.3 337.3 697.7 381.7 654 399.2C610.3 416.7 566.7 407.3 523 389.8C479.3 372.3 435.7 346.7 392.2 350.2C348.7 353.7 305.3 386.3 261.8 402.7C218.3 419 174.7 419 131 413.2C87.3 407.3 43.7 395.7 21.8 389.8L0 384Z" fill="#6e46b9"></path><path d="M0 701L21.8 701C43.7 701 87.3 701 131 701C174.7 701 218.3 701 261.8 701C305.3 701 348.7 701 392.2 701C435.7 701 479.3 701 523 701C566.7 701 610.3 701 654 701C697.7 701 741.3 701 785 701C828.7 701 872.3 701 916 701C959.7 701 1003.3 701 1046.8 701C1090.3 701 1133.7 701 1177.2 701C1220.7 701 1264.3 701 1308 701C1351.7 701 1395.3 701 1417.2 701L1439 701L1439 573L1417.2 576.5C1395.3 580 1351.7 587 1308 601C1264.3 615 1220.7 636 1177.2 639.5C1133.7 643 1090.3 629 1046.8 619.7C1003.3 610.3 959.7 605.7 916 610.3C872.3 615 828.7 629 785 634.8C741.3 640.7 697.7 638.3 654 624.3C610.3 610.3 566.7 584.7 523 580C479.3 575.3 435.7 591.7 392.2 597.5C348.7 603.3 305.3 598.7 261.8 591.7C218.3 584.7 174.7 575.3 131 580C87.3 584.7 43.7 603.3 21.8 612.7L0 622Z" fill="#956ee0"></path></svg>