<svg id="visual" viewBox="0 0 1439 600" width="1439" height="600" xmlns="http://www.w3.org/2000/svg" xmlns:xlink="http://www.w3.org/1999/xlink" version="1.1"><rect x="0" y="0" width="1439" height="600" fill="#764cc5"></rect><path d="M0 177L34.3 187.8C68.7 198.7 137.3 220.3 205.8 217.8C274.3 215.3 342.7 188.7 411.2 176.7C479.7 164.7 548.3 167.3 616.8 173.8C685.3 180.3 753.7 190.7 822.2 192.3C890.7 194 959.3 187 1027.8 194.3C1096.3 201.7 1164.7 223.3 1233.2 226.3C1301.7 229.3 1370.3 213.7 1404.7 205.8L1439 198L1439 0L1404.7 0C1370.3 0 1301.7 0 1233.2 0C1164.7 0 1096.3 0 1027.8 0C959.3 0 890.7 0 822.2 0C753.7 0 685.3 0 616.8 0C548.3 0 479.7 0 411.2 0C342.7 0 274.3 0 205.8 0C137.3 0 68.7 0 34.3 0L0 0Z" fill="#fbb6ff"></path><path d="M0 172L34.3 171.8C68.7 171.7 137.3 171.3 205.8 167.8C274.3 164.3 342.7 157.7 411.2 155C479.7 152.3 548.3 153.7 616.8 153.7C685.3 153.7 753.7 152.3 822.2 157.7C890.7 163 959.3 175 1027.8 179.7C1096.3 184.3 1164.7 181.7 1233.2 168C1301.7 154.3 1370.3 129.7 1404.7 117.3L1439 105L1439 0L1404.7 0C1370.3 0 1301.7 0 1233.2 0C1164.7 0 1096.3 0 1027.8 0C959.3 0 890.7 0 822.2 0C753.7 0 685.3 0 616.8 0C548.3 0 479.7 0 411.2 0C342.7 0 274.3 0 205.8 0C137.3 0 68.7 0 34.3 0L0 0Z" fill="#dd9cf3"></path><path d="M0 115L34.3 107C68.7 99 137.3 83 205.8 83.2C274.3 83.3 342.7 99.7 411.2 102.5C479.7 105.3 548.3 94.7 616.8 87C685.3 79.3 753.7 74.7 822.2 79C890.7 83.3 959.3 96.7 1027.8 102.3C1096.3 108 1164.7 106 1233.2 108.8C1301.7 111.7 1370.3 119.3 1404.7 123.2L1439 127L1439 0L1404.7 0C1370.3 0 1301.7 0 1233.2 0C1164.7 0 1096.3 0 1027.8 0C959.3 0 890.7 0 822.2 0C753.7 0 685.3 0 616.8 0C548.3 0 479.7 0 411.2 0C342.7 0 274.3 0 205.8 0C137.3 0 68.7 0 34.3 0L0 0Z" fill="#bc84e9"></path><path d="M0 81L34.3 78.3C68.7 75.7 137.3 70.3 205.8 64.2C274.3 58 342.7 51 411.2 53.8C479.7 56.7 548.3 69.3 616.8 67.2C685.3 65 753.7 48 822.2 40.8C890.7 33.7 959.3 36.3 1027.8 37.5C1096.3 38.7 1164.7 38.3 1233.2 42.2C1301.7 46 1370.3 54 1404.7 58L1439 62L1439 0L1404.7 0C1370.3 0 1301.7 0 1233.2 0C1164.7 0 1096.3 0 1027.8 0C959.3 0 890.7 0 822.2 0C753.7 0 685.3 0 616.8 0C548.3 0 479.7 0 411.2 0C342.7 0 274.3 0 205.8 0C137.3 0 68.7 0 34.3 0L0 0Z" fill="#956ee0"></path></svg>